<svg width="466px" height="108px" viewBox="0 0 466 108" version="1.1" xmlns="http://www.w3.org/2000/svg">
<path d="M182.742,93.4848698 C177.808,101.99207 168.949,107.904977 160.63,107.602475 C147.763,107.094543 142.683,95.4120698 146.747,81.8672698 C150.133,70.6927698 160.461,58.1637698 167.741,50.0368698 C160.292,54.4389698 153.011,56.3013698 147.763,56.3013698 C139.466,80.1741698 124.228,105.74006 106.112,107.094543 C96.8001001,107.771786 91.7208001,101.84591 91.8901001,93.2110698 C86.4721001,100.15281 78.8532001,106.755922 70.5569001,106.755922 C54.9804001,106.755922 51.5941001,85.2534698 65.6469001,64.9361698 C79.1918001,45.4654698 92.5673001,37.6771698 101.202,37.6771698 C107.805,37.6771698 111.191,42.9257698 111.191,48.8516698 C113.731,44.6188698 115.932,41.2326698 117.117,39.5395698 C118.472,37.5078698 119.826,36.9999698 121.181,38.5237698 C123.89,41.5712698 125.075,48.6823698 121.35,57.1478698 C117.964,64.7668698 108.99,77.9730698 105.266,86.6079698 C101.202,96.2586698 101.879,102.52316 107.128,102.01522 C117.964,100.99936 133.202,80.1741698 141.159,55.2854698 C127.445,50.3754698 143.53,27.3492698 150.302,26.8412698 C155.551,26.5026698 153.858,36.4919698 150.302,48.1744698 C156.397,47.4971698 162.662,44.6188698 169.096,40.2168698 C171.466,38.5237698 172.651,38.1850698 174.175,39.8781698 C177.392,43.4337698 181.455,51.2220698 176.545,56.9785698 C168.588,66.1213698 159.953,77.9730698 157.244,86.4386698 C154.366,95.7507698 156.228,102.35384 161.477,102.69247 C168.147,103.16893 176.01,93.3655698 181.43,81.6676698 C181.849,76.3908698 183.468,70.6869698 186.365,64.9361698 C197.371,43.0950698 214.64,34.2909698 223.106,39.2009698 C227.339,41.7406698 230.386,44.2802698 233.095,48.0051698 C236.143,52.0685698 234.788,62.3965698 227.677,71.0313698 C219.381,81.1899698 208.037,85.5920698 196.185,75.9413698 C190.768,91.5179698 194.831,102.18453 203.804,102.69247 C214.635,103.21442 224.46,95.2885698 231.729,86.5108698 C232.054,85.2134698 232.454,83.8877698 232.926,82.5444698 C236.82,71.3699698 245.116,54.7775698 256.46,39.3702698 C257.815,37.5078698 259.508,37.6771698 260.523,39.2009698 C264.587,44.7882698 263.74,52.0685698 257.476,62.0578698 C251.381,71.7085698 246.979,79.6661698 243.592,87.7931698 C240.206,96.0893698 240.376,102.01522 244.27,101.84591 C251.042,101.6766 257.307,90.3327698 266.449,75.6027698 C277.285,58.3330698 282.195,46.6506698 287.783,39.3702698 C289.476,37.1692698 290.491,36.8306698 292.015,38.3543698 C294.386,41.4019698 295.74,48.8516698 291.677,57.3171698 C287.952,64.9361698 279.486,77.8037698 275.254,86.7772698 C270.682,96.4279698 271.19,102.18453 276.1,102.35384 C282.026,102.52316 292.185,91.3486698 301.327,75.4334698 C304.206,49.5288698 315.888,38.3543698 319.444,37.6771698 C321.645,37.3385698 322.661,39.8781698 321.983,43.4337698 C320.629,50.2061698 317.751,57.8251698 307.253,75.6027698 C295.74,94.9041698 283.719,107.941097 272.375,107.602475 C265.095,107.433165 261.031,100.83005 261.539,93.5496698 C256.121,100.49143 249.01,107.263854 240.883,106.755922 C234.757,106.36064 231.571,102.44699 230.856,96.7655698 C223.61,103.17846 213.961,107.477167 204.312,107.602475 C193.074,107.77946 185.674,102.08246 182.742,93.4848698 Z M197.709,72.2165698 C206.005,77.4651698 212.947,70.1847698 217.857,63.7509698 C223.275,56.6399698 227,47.8357698 224.63,45.9733698 C221.074,43.0950698 207.021,53.2537698 199.064,69.3382698 C198.556,70.3541698 198.048,71.3699698 197.709,72.2165698 Z M103.742,46.3119698 C98.4932001,45.9733698 86.1335001,56.8092698 76.8214001,71.7085698 C67.6787001,86.2693698 65.8162001,100.99936 72.4194001,101.16867 C79.1918001,101.33798 87.9959001,91.0100698 96.6308001,75.7720698 C107.128,57.3171698 108.652,46.6506698 103.742,46.3119698 Z M370.992,91.9113698 C363.602,100.92298 351.681,107.447664 339.761,107.602475 C318.258,107.941097 310.809,86.7772698 321.814,64.9361698 C332.819,43.0950698 350.089,34.2909698 358.554,39.2009698 C362.787,41.7406698 365.835,44.2802698 368.544,48.0051698 C371.591,52.0685698 370.237,62.3965698 363.126,71.0313698 C354.83,81.1899698 343.486,85.5920698 331.634,75.9413698 C326.216,91.5179698 330.279,102.18453 339.253,102.69247 C352.856,103.34804 364.873,90.6768698 372.232,79.7294698 C378.632,50.4583698 397.785,20.1135698 414.935,2.29156978 C417.474,-0.417430215 419.845,-0.756430215 422.215,1.44456978 C427.125,5.84656978 428.141,12.1112698 426.109,20.0688698 C420.861,40.8940698 401.898,61.2113698 386.829,71.0313698 C380.057,87.6237698 378.194,101.6766 385.813,102.35384 C393.412,102.98705 404.266,92.3717698 411.043,80.3330698 C417.31,50.8761698 436.609,20.2360698 453.876,2.29156978 C456.416,-0.417430215 458.786,-0.756430215 461.157,1.44456978 C466.067,5.84656978 467.083,12.1112698 465.051,20.0688698 C459.802,40.8940698 440.839,61.2113698 425.771,71.0313698 C418.998,87.6237698 417.136,101.6766 424.755,102.35384 C432.882,103.03109 444.733,90.8407698 451.337,77.8037698 C452.522,75.6027698 454.384,75.4334698 455.061,77.8037698 C455.908,80.5127698 455.231,84.2375698 453.368,88.3010698 C450.998,93.3803698 438.638,107.433165 425.093,107.094543 C416.967,106.858993 411.462,102.85485 410.175,94.2842698 C404.921,100.21725 395.839,107.33673 386.152,107.094543 C377.309,106.838234 371.571,102.11981 370.992,91.9113698 Z M428.818,63.7509698 C452.014,44.9575698 461.495,17.8678698 459.294,16.5133698 C457.093,15.1588698 444.564,33.9523698 432.882,55.6240698 C431.358,58.3330698 430.003,61.0420698 428.818,63.7509698 Z M389.877,63.7509698 C413.072,44.9575698 422.554,17.8678698 420.353,16.5133698 C418.152,15.1588698 405.623,33.9523698 393.94,55.6240698 C392.417,58.3330698 391.062,61.0420698 389.877,63.7509698 Z M333.158,72.2165698 C341.454,77.4651698 348.396,70.1847698 353.306,63.7509698 C358.724,56.6399698 362.449,47.8357698 360.078,45.9733698 C356.523,43.0950698 342.47,53.2537698 334.512,69.3382698 C334.004,70.3541698 333.496,71.3699698 333.158,72.2165698 Z M39.7424001,15.8360698 C35.8483001,13.9736698 33.9858001,10.5874698 33.1393001,7.20156978 C32.8007001,5.84656978 33.3086001,5.16956978 35.0017001,5.16956978 C49.0545001,5.84656978 67.0014001,0.936569785 76.4828001,0.936569785 C83.7632001,0.936569785 88.1652001,4.32256978 90.3663001,9.57156978 C90.8742001,10.9260698 90.5356001,12.1112698 88.3346001,12.1112698 C75.6363001,11.9419698 63.7845001,15.3281698 53.4566001,16.8519698 C47.5307001,26.5026698 39.5731001,40.2168698 31.2769001,55.4547698 C35.6789001,54.6082698 39.5731001,54.2695698 42.6207001,54.1002698 C51.0862001,53.5923698 55.3190001,57.1478698 56.8428001,62.2271698 C57.3507001,63.7509698 57.0121001,64.7668698 54.9804001,64.7668698 C46.5148001,64.5975698 33.4779001,67.1372698 23.8272001,69.5075698 C17.3934001,82.0365698 11.1289001,94.7348698 6.21889005,106.07868 C5.54165005,107.771786 4.52578005,107.771786 3.34061005,106.755922 C0.123706052,104.04695 -1.56939995,98.6290098 1.98612005,88.1317698 C7.06544005,73.2323698 24.8431001,40.0475698 39.7424001,15.8360698 Z" fill="#FFFFFF"/>
</svg>
