<svg width="100%" height="100%" viewBox="0 0 1210 476" version="1.1" xmlns="http://www.w3.org/2000/svg">
<path d="M181.022,-0c0,-0 -5.219,26.13 -5.301,26.484c-12.792,-3.111 -28.233,-5.851 -43.292,-5.851c-66.098,-0 -108.807,31.327 -108.807,79.822c-0,14.16 4.173,26.403 11.539,36.504c-1.694,4.119 -33.828,82.171 -33.828,82.171l88.033,28.233c-0,-0 5.023,-27.209 5.138,-27.803c14.018,3.999 32.036,7.268 54.106,7.268c42.59,0 70.67,-11.561 87.816,-28.157l-0,26.681l141.688,0.212l-0,-15.179c16.225,10.968 37.233,17.326 61.075,17.326c35.719,-0 65.194,-10.118 80.869,-19.592l17.603,-10.63c-0,0 0.528,-38.241 0.588,-39.718c11.284,24.082 33.295,71.084 33.295,71.084l77.834,-3.803c-0,-0 22.959,-42.785 35.539,-66.235c6.38,40.563 44.109,68.894 94.511,68.894c31.546,-0 58.182,-7.895 74.783,-16.263l0,14.274l23.194,-1.182c12.067,-0.61 121.703,0.67 121.703,0.67l77.322,16.421c0,0 1.733,-11.948 2.697,-18.508c11.316,2.305 23.722,3.705 34.929,3.705c61.647,0 89.722,-31.725 89.722,-61.2c0,-12.542 -3.323,-26.283 -14.471,-36.82c4.67,-13.174 20.693,-58.476 20.693,-58.476l-81.256,-19.516c0,0 -1.716,12.488 -2.598,18.927c-7.366,-1.362 -15.163,-2.364 -23.117,-2.364c-30.304,-0 -51.607,7.186 -65.903,17.761c-11.278,-11.109 -28.113,-17.543 -47.356,-17.543c-7.791,-0 -14.585,1.22 -20.889,2.931c0.496,-3.247 1.204,-8.031 1.204,-8.031l-125.801,15.141c0,-0 0.948,4.255 1.657,7.459c-16.203,-11.338 -38.22,-18.623 -65.843,-18.623c-21.76,0 -40.818,4.626 -56.117,12.935l0,-11.262c0,0 -97.306,1.989 -110.458,1.084l-13.212,-4.887c-0,0 -99.333,12.662 -106.797,13.604c-14.531,-7.126 -32.407,-11.474 -53.655,-11.474c-38.432,0 -68.381,14.411 -84.072,38.198c0.174,-3.922 5.257,-81.457 5.257,-81.457l-97.856,-7.78l-0,10.809c-6.99,-2.223 -82.166,-26.244 -82.166,-26.244Zm-89.297,261.728l-21.128,3.286l10.242,82.911c0,0 26.425,-7.164 26.719,-7.246c0.61,16.835 0.888,24.398 1.454,40.149c-2.696,-0.218 -31.463,-2.616 -31.463,-2.616l-0,81.392l148.738,0.18l-0.082,-26.604c9.414,8.232 44.599,40.464 44.599,40.464c0,0 48.457,-34.04 59.681,-41.919c17.053,18.41 43.728,29.633 75.448,29.633c24.277,0 45.563,-4.707 61.69,-10.689c-0.534,1.536 -1.656,4.707 -1.656,4.707l81.223,19.903c-0,-0 1.749,-11.948 2.697,-18.508c11.321,2.305 23.727,3.705 34.929,3.705c40.088,-0 65.897,-13.452 79.092,-30.935c17.092,20.218 45.167,32.722 78.897,32.722c30.281,-0 55.621,-9.627 72.751,-25.83l-0,22.937l144.88,-0.512l-0.043,-22.72l-0,-36.547c3.999,-4.151 13.92,-14.492 15.636,-16.263c6.969,-0.49 18.998,-1.318 19.788,-1.378c0.316,70.31 49.242,78.526 86.099,78.526c35.251,-0 64.312,-11.916 75.928,-18.927l17.265,-10.45l-21.913,-48.201l0,-79.708c0,-0 -42.371,1.008 -61.195,1.438c0.943,-3.601 15.239,-44.496 15.239,-44.496l-99.649,18.78c0,0 -3.171,20.992 -3.841,25.422c-5.628,-0.273 -46.545,-3.089 -52.63,-3.089c-7.797,-0 -14.591,1.22 -20.889,2.931c0.496,-3.247 1.199,-8.031 1.199,-8.031l-125.812,15.141c0,-0 0.959,4.271 1.689,7.562c-16.737,-12.231 -38.982,-19.396 -64.502,-19.396c-27.449,0 -51.154,8.227 -68.245,22.109c2.266,-6.418 6.222,-17.581 6.222,-17.581l-81.278,-19.516c0,-0 -1.71,12.487 -2.582,18.927c-7.383,-1.362 -15.179,-2.364 -23.112,-2.364c-45.7,-0 -71.1,16.241 -82.503,35.953c-15.691,-21.287 -44.18,-36.858 -84.704,-36.858c-38.405,0 -68.38,14.332 -84.089,38.09c0.069,-0.091 -3.577,-1.283 -3.577,-1.283c1.93,-5.746 2.999,-11.994 2.999,-18.773c0,-64.998 -87.989,-64.998 -116.914,-64.998c-53.715,0 -85.434,4.239 -113.297,8.57Z" fill="#FFFFFF"/>
<path d="M192.66,54.385c-11.011,-3.82 -37.076,-11.676 -60.231,-11.676c-48.757,0 -86.736,19.548 -86.736,57.746c-0,31.922 28.766,44.05 59.996,44.05c17.974,-0 48.103,-4.038 57.986,-4.038c18.884,0 24.948,6.299 24.948,13.703c-0,11.697 -18.214,18.884 -44.502,18.884c-31.916,-0 -64.72,-11.011 -87.635,-29.89l-25.618,62.258l41.347,13.255l5.399,-29.224c9.883,5.181 33.469,15.277 70.996,15.277c52.375,-0 87.876,-19.984 87.876,-58.651c-0,-23.825 -17.98,-40.442 -65.625,-40.442c-13.49,-0 -35.283,2.697 -47.198,2.697c-19.767,-0 -29.437,-6.517 -29.437,-15.065c-0,-11.458 9.888,-20.001 39.56,-20.001c31.011,0 57.751,12.363 80.236,28.549l26.735,-59.56l-42.921,-13.708l-5.176,25.836Zm92.599,20.692l53.714,-3.835l0,-27.65l-53.714,-4.25l-0,35.735Zm-190.129,208.466l4.495,36.405l28.979,-7.856l3.367,92.795l-32.346,-2.675l0,34.379c18.208,-0.671 35.735,-1.793 54.161,-1.793c19.102,0 35.507,1.122 50.332,1.793l-0,-34.379l-31.23,2.675l0.67,-31.224l11.91,0c30.777,20.671 53.044,40.225 87.189,71.688l52.826,-37.075l-22.463,-23.607l-13.272,15.064l-56.411,-31.012c24.729,-2.244 66.529,-17.527 66.529,-50.565c-0,-33.708 -41.347,-42.922 -94.844,-42.922c-51.688,0 -82.482,4.032 -109.892,8.309Zm79.55,25.4c11.006,-1.122 15.065,-1.575 28.549,-1.575c29.203,0 44.714,6.969 44.714,18.644c0,13.725 -21.58,22.485 -41.581,22.485l-32.352,0l0.67,-39.554Zm852.383,-11.245l-4.489,29.671l-31.894,-1.575l-0,34.379l28.979,-2.01c-0.665,7.644 -1.787,15.282 -1.787,23.139c-0,44.261 20.219,57.076 64.044,57.076c29.438,-0 54.837,-9.884 64.486,-15.73l-15.495,-31.681c-8.782,6.521 -27.644,15.734 -43.373,15.734c-23.156,0 -28.549,-9.665 -28.549,-28.314c-0,-8.549 1.122,-17.309 1.574,-20.224l70.566,2.01l0,-34.379l-66.747,1.575c2.245,-12.814 6.751,-31.464 9.214,-38.432l-46.529,8.761Zm-411.688,33.708c-8.548,-3.585 -25.165,-8.308 -41.565,-8.308c-44.953,-0 -67.869,17.979 -67.869,41.586c0,24.948 23.586,32.134 47.645,32.134c13.921,0 27.411,-2.484 38.868,-2.484c8.767,-0 14.825,0.67 14.825,6.521c0,7.873 -8.761,10.336 -26.065,10.336c-27.41,-0 -49.443,-7.426 -69.661,-18.432l-16.639,46.981l33.943,8.308l2.914,-20.006c8.783,4.729 31.916,10.336 53.045,10.336c42.921,-0 67.635,-17.974 67.635,-39.103c-0,-19.548 -11.463,-32.346 -52.14,-32.346c-10.554,-0 -19.549,1.335 -28.527,1.335c-10.576,-0 -17.762,-2.457 -17.762,-8.091c0,-6.282 8.309,-9.213 25.618,-9.213c22.485,0 39.554,7.639 55.518,15.729l16.623,-46.958l-33.709,-8.091l-2.697,19.766Zm529.235,-233.648c-8.543,-3.585 -25.16,-8.308 -41.581,-8.308c-44.932,-0 -67.87,17.979 -67.87,41.586c0,24.948 23.608,32.134 47.651,32.134c13.937,0 27.427,-2.484 38.884,-2.484c8.761,0 14.831,0.67 14.831,6.522c-0,7.872 -8.767,10.335 -26.076,10.335c-27.405,-0 -49.438,-7.426 -69.662,-18.432l-16.633,46.981l33.943,8.309l2.914,-20.007c8.761,4.73 31.916,10.336 53.045,10.336c42.921,-0 67.635,-17.974 67.635,-39.102c-0,-19.549 -11.458,-32.347 -52.14,-32.347c-10.554,0 -19.554,1.335 -28.533,1.335c-10.575,-0 -17.756,-2.457 -17.756,-8.091c0,-6.282 8.309,-9.213 25.613,-9.213c22.485,0 39.559,7.639 55.528,15.729l16.618,-46.958l-33.714,-8.091l-2.697,19.766Zm-891.273,-1.334l8.096,36.405l29.672,-9.001l2.244,46.289l-34.847,-2.005l0,34.379c20.001,-0.671 35.97,-1.341 51.704,-1.341c15.277,0 30.554,0.67 45.837,1.341l-0,-34.379l-25.4,2.005l3.819,-82.46l-81.125,8.767Zm579.136,233.86l8.074,36.405l22.937,-8.979l2.245,46.055l-28.097,-2.005l0,34.378c13.25,-0.67 29.219,-1.34 44.948,-1.34c15.283,0 30.56,0.67 55.725,1.34l0,-34.378l-35.283,2.005l0,-22.463c8.543,-11.006 20.001,-20.459 34.395,-20.224l16.857,13.037l33.039,-34.378c-5.846,-9.666 -18.666,-16.421 -36.193,-16.421c-26.522,-0 -40.007,15.059 -50.348,29.437l-0.212,-0l4.723,-31.23l-72.81,8.761Zm-164.293,50.347c-0,35.501 31.033,59.545 74.625,59.545c43.809,-0 74.369,-23.809 74.369,-59.545c-0,-35.501 -31.9,-59.108 -74.369,-59.108c-43.592,0 -74.625,23.825 -74.625,59.108Zm44.954,0c-0,-18.426 13.25,-29.437 29.889,-29.437c15.947,0 29.437,11.011 29.437,29.437c-0,18.644 -13.49,29.89 -29.437,29.89c-16.639,-0 -29.889,-11.246 -29.889,-29.89Zm157.989,-283.995l8.09,36.405l22.921,-8.978l2.245,46.054l-28.097,-2.005l0,34.379c13.272,-0.671 29.219,-1.341 44.948,-1.341c15.283,0 30.56,0.67 55.747,1.341l-0.022,-34.379l-35.266,2.005l-0,-22.463c8.526,-11.006 19.989,-20.459 34.378,-20.224l16.857,13.037l33.039,-34.378c-5.846,-9.665 -18.666,-16.421 -36.193,-16.421c-26.517,-0 -40.007,15.059 -50.32,29.437l-0.24,-0l4.723,-31.23l-72.81,8.761Zm-538.671,283.543c-0,36.858 32.564,59.109 73.481,59.109c33.043,-0 58.656,-9.884 69.449,-16.4l-14.847,-29.006c-11.458,7.208 -30.325,15.516 -45.384,15.516c-26.522,0 -33.708,-11.457 -35.735,-20.458l103.604,-0c0.218,-2.915 0.452,-6.734 0.452,-10.101c-0.234,-28.549 -26.086,-56.646 -76.869,-56.646c-40.895,0 -74.151,19.788 -74.151,57.986Zm77.087,-30.107c19.767,-0 30.102,11.006 31.442,19.984l-62.023,0c2.032,-8.761 11.011,-19.984 30.581,-19.984Zm296.408,-203.541c0,36.858 32.586,59.109 73.481,59.109c33.039,-0 58.656,-9.883 69.449,-16.4l-14.83,-29.006c-11.458,7.208 -30.341,15.516 -45.406,15.516c-26.522,0 -33.708,-11.457 -35.735,-20.458l103.604,0c0.224,-2.915 0.458,-6.734 0.458,-10.101c-0.234,-28.549 -26.07,-56.646 -76.87,-56.646c-40.894,0 -74.151,19.789 -74.151,57.986Zm77.088,-30.107c19.766,0 30.102,11.006 31.464,19.984l-62.045,0c2.027,-8.76 11.027,-19.984 30.581,-19.984Zm-268.567,-18.878l10.335,35.948l22.033,-9.431l38.432,82.029l50.565,-2.479l42.688,-79.55l23.373,2.915l-0,-35.736c-21.107,0.905 -35.267,1.809 -48.087,1.809c-13.936,0 -28.767,-0.904 -41.799,-1.809l0,35.065l23.591,-3.149l-20.442,56.864l-30.123,-91.477l-70.566,9.001Zm-148.76,48.985c-0,36.858 32.586,59.109 73.481,59.109c33.044,-0 58.656,-9.883 69.449,-16.4l-14.825,-29.006c-11.479,7.208 -30.347,15.516 -45.406,15.516c-26.522,0 -33.708,-11.457 -35.735,-20.458l103.604,0c0.218,-2.915 0.453,-6.734 0.453,-10.101c-0.235,-28.549 -26.07,-56.646 -76.87,-56.646c-40.895,0 -74.151,19.789 -74.151,57.986Zm77.088,-30.107c19.766,0 30.101,11.006 31.442,19.984l-62.018,0c2.027,-8.76 11.022,-19.984 30.576,-19.984Z" fill="#970f00"/>
</svg>
